# xmcd
#
# Track frame offsets: 
#        150
#        24510
#        46572
#        66580
#
# Disc length: 1213 seconds
#
# Revision: 3
# Processed by: cddbd v1.5PL3 Copyright (c) Steve Scherf et al.
# Submitted via: ExactAudioCopy v0.90b4
#
DISCID=2c04bb04
DTITLE=northern bright - SUGAR and SPICE e.p.
DYEAR=1999
DGENRE=JPop
TTITLE0=Sugar and Spice
TTITLE1=Monterey Park
TTITLE2=Barabajagal
TTITLE3=Sugar and Spice(Long Hot Summer Mix)
EXTD=
EXTT0=
EXTT1=
EXTT2=
EXTT3=
PLAYORDER=
